<svg version="1.1" id="designs" xmlns="http://www.w3.org/2000/svg" xmlns:xlink="http://www.w3.org/1999/xlink" width="800px" height="800px" viewBox="0 0 32 32" xml:space="preserve" transform="rotate(0) scale(1, 1)">
<style type="text/css">.scienceandfiction_een { fill: #5e6ad2; }.scienceandfiction_twee { fill: #5e6ad2; }</style>
<path class="scienceandfiction_een" d="M18,8V7h2V6h-1V4h-6v2H7v2H6v20h19V8H18z M17,8h-2V7h2V8z M14,5h4v1h-4V5z M8,7h6v1H8V7z&#10;&#9; M24,27H7V9h17V27z"/>
<path class="scienceandfiction_twee" d="M12.621,16.086L11.207,17.5l1.414,1.414l-0.707,0.707L10.5,18.207l-1.414,1.414&#10;&#9;l-0.707-0.707L9.793,17.5l-1.414-1.414l0.707-0.707l1.414,1.414l1.414-1.414L12.621,16.086z M16.914,15.379L15.5,16.793&#10;&#9;l-1.414-1.414l-0.707,0.707l1.414,1.414l-1.414,1.414l0.707,0.707l1.414-1.414l1.414,1.414l0.707-0.707L16.207,17.5l1.414-1.414&#10;&#9;L16.914,15.379z M22.621,16.086l-0.707-0.707L20.5,16.793l-1.414-1.414l-0.707,0.707l1.414,1.414l-1.414,1.414l0.707,0.707&#10;&#9;l1.414-1.414l1.414,1.414l0.707-0.707L21.207,17.5L22.621,16.086z"/>
</svg>